<svg width="100%" height="100%" viewBox="0 0 50 50" fill="none" xmlns="http://www.w3.org/2000/svg">
<path d="M20.3977 20.3988C22.7615 18.0352 25.9433 16.6705 29.285 16.5871C32.6267 16.5037 35.8726 17.7079 38.3514 19.9506L38.823 20.3988L46.1921 27.7705C48.5921 30.1747 49.9581 33.4213 49.9991 36.8182C50.04 40.215 48.7525 43.4935 46.4111 45.9549C44.0697 48.4162 40.8596 49.8658 37.4649 49.9945C34.0702 50.1232 30.7595 48.921 28.2384 46.644L27.7694 46.1958L22.24 40.6664C21.7726 40.1975 21.5013 39.5682 21.4811 38.9065C21.4609 38.2448 21.6933 37.6001 22.1312 37.1036C22.569 36.607 23.1795 36.2957 23.8385 36.2329C24.4976 36.1702 25.1558 36.3606 25.6796 36.7656L25.9245 36.9818L31.4539 42.5113C32.8873 43.953 34.8259 44.7796 36.8586 44.8157C38.8913 44.8519 40.8581 44.0948 42.3418 42.7049C43.8255 41.3151 44.7095 39.4019 44.8061 37.3712C44.9027 35.3405 44.2044 33.3521 42.8594 31.8276L42.5076 31.455L35.1385 24.0859C34.4126 23.3599 33.5507 22.784 32.6022 22.391C31.6537 21.9981 30.6371 21.7958 29.6104 21.7958C28.5837 21.7958 27.567 21.9981 26.6185 22.391C25.67 22.784 24.8082 23.3599 24.0823 24.0859C23.5933 24.5745 22.9303 24.8489 22.2391 24.8486C21.5478 24.8484 20.885 24.5736 20.3964 24.0846C19.9078 23.5957 19.6334 22.9327 19.6337 22.2414C19.6339 21.5502 19.9088 20.8874 20.3977 20.3988ZM3.81466 3.81573C6.17842 1.45213 9.36023 0.0874835 12.7019 0.00406204C16.0436 -0.0793594 19.2896 1.12483 21.7683 3.36754L22.24 3.81573L27.7668 9.34775C28.2341 9.81668 28.5055 10.4459 28.5257 11.1076C28.5459 11.7694 28.3134 12.414 27.8756 12.9106C27.4377 13.4071 26.8273 13.7184 26.1682 13.7812C25.5092 13.844 24.8509 13.6535 24.3272 13.2486L24.0823 13.0323L18.5554 7.50548C17.1196 6.07898 15.1864 5.26499 13.1626 5.23476C11.1389 5.20452 9.18226 5.9604 7.70444 7.34337C6.22661 8.72634 5.34279 10.6286 5.2389 12.6499C5.13501 14.6713 5.81916 16.6541 7.14742 18.1813L7.4992 18.5565L14.8709 25.9282C16.3368 27.3937 18.3248 28.217 20.3977 28.217C22.4706 28.217 24.4586 27.3937 25.9245 25.9282C26.1665 25.6861 26.4537 25.494 26.7699 25.3629C27.086 25.2318 27.4249 25.1643 27.7672 25.1642C28.1094 25.1641 28.4484 25.2314 28.7646 25.3622C29.0809 25.4931 29.3683 25.685 29.6104 25.9269C29.8525 26.1688 30.0446 26.4561 30.1756 26.7722C30.3067 27.0884 30.3743 27.4273 30.3744 27.7696C30.3745 28.1118 30.3072 28.4507 30.1763 28.767C30.0455 29.0833 29.8536 29.3706 29.6117 29.6127C27.2479 31.9763 24.0661 33.341 20.7244 33.4244C17.3827 33.5078 14.1367 32.3036 11.658 30.0609L11.1837 29.6127L3.81466 22.2411C1.37213 19.7978 0 16.4845 0 13.0297C0 9.57492 1.37213 6.25899 3.81466 3.81573Z" fill="#111111"/>
</svg>
