<svg width="100%" height="100%" viewBox="0 0 36 30" fill="none" xmlns="http://www.w3.org/2000/svg">
<path d="M6 0C4.4087 0 2.88258 0.632141 1.75736 1.75736C0.632141 2.88258 0 4.4087 0 6V6.603L18 16.296L36 6.606V6C36 4.4087 35.3679 2.88258 34.2426 1.75736C33.1174 0.632141 31.5913 0 30 0H6ZM36 10.011L18.711 19.32C18.4925 19.4376 18.2482 19.4992 18 19.4992C17.7518 19.4992 17.5075 19.4376 17.289 19.32L0 10.011V24C0 25.5913 0.632141 27.1174 1.75736 28.2426C2.88258 29.3679 4.4087 30 6 30H30C31.5913 30 33.1174 29.3679 34.2426 28.2426C35.3679 27.1174 36 25.5913 36 24V10.011Z" fill="#111111"/>
</svg>
