<svg width="100%" height="100%" viewBox="0 0 50 49" fill="none" xmlns="http://www.w3.org/2000/svg">
<path d="M25 0C21.717 0 18.4661 0.646644 15.4329 1.90301C12.3998 3.15938 9.6438 5.00087 7.32233 7.32233C2.63392 12.0107 0 18.3696 0 25C0 36.05 7.175 45.425 17.1 48.75C18.35 48.95 18.75 48.175 18.75 47.5V43.275C11.825 44.775 10.35 39.925 10.35 39.925C9.2 37.025 7.575 36.25 7.575 36.25C5.3 34.7 7.75 34.75 7.75 34.75C10.25 34.925 11.575 37.325 11.575 37.325C13.75 41.125 17.425 40 18.85 39.4C19.075 37.775 19.725 36.675 20.425 36.05C14.875 35.425 9.05 33.275 9.05 23.75C9.05 20.975 10 18.75 11.625 16.975C11.375 16.35 10.5 13.75 11.875 10.375C11.875 10.375 13.975 9.7 18.75 12.925C20.725 12.375 22.875 12.1 25 12.1C27.125 12.1 29.275 12.375 31.25 12.925C36.025 9.7 38.125 10.375 38.125 10.375C39.5 13.75 38.625 16.35 38.375 16.975C40 18.75 40.95 20.975 40.95 23.75C40.95 33.3 35.1 35.4 29.525 36.025C30.425 36.8 31.25 38.325 31.25 40.65V47.5C31.25 48.175 31.65 48.975 32.925 48.75C42.85 45.4 50 36.05 50 25C50 21.717 49.3534 18.4661 48.097 15.4329C46.8406 12.3998 44.9991 9.6438 42.6777 7.32233C40.3562 5.00087 37.6002 3.15938 34.5671 1.90301C31.5339 0.646644 28.283 0 25 0Z" fill="#111111"/>
</svg>
