<svg width="100%" height="100%" viewBox="0 0 24 24" fill="none" xmlns="http://www.w3.org/2000/svg">
<path d="M3 0C1.338 0 0 1.338 0 3V21C0 22.662 1.338 24 3 24H21C22.662 24 24 22.662 24 21V3C24 1.338 22.662 0 21 0H3ZM9.883 6.25C10.513 6.25 10.888 6.55 11.008 7.15L12.471 15.453C12.9357 14.8377 13.3177 14.32 13.617 13.9C14.1145 13.1839 14.544 12.423 14.9 11.627C15.3053 10.7717 15.508 10.0067 15.508 9.332C15.508 8.92733 15.3953 8.605 15.17 8.365C14.96 8.11033 14.5623 7.788 13.977 7.398C14.577 6.63267 15.327 6.25 16.227 6.25C16.707 6.25 17.1047 6.39267 17.42 6.678C17.75 6.96267 17.9147 7.38267 17.914 7.938C17.914 8.868 17.524 10.0307 16.744 11.426C15.9793 12.806 14.5023 14.8833 12.313 17.658L10.086 17.814L8.375 8.186H6.125V7.24C6.725 7.04467 7.43 6.83467 8.24 6.61C9.05 6.37 9.59767 6.25 9.883 6.25Z" fill="#111111"/>
</svg>
